<svg width="40" height="41" viewBox="0 0 40 41" fill="none" xmlns="http://www.w3.org/2000/svg">
<g id="Frame">
<path id="Vector" fill-rule="evenodd" clip-rule="evenodd" d="M20 4.0929C11.025 4.0929 3.75 11.3679 3.75 20.3429C3.75 29.3179 11.025 36.5929 20 36.5929C28.975 36.5929 36.25 29.3179 36.25 20.3429C36.25 11.3679 28.975 4.0929 20 4.0929ZM27.1333 21.2262C27.3674 20.9919 27.4989 20.6741 27.4989 20.3429C27.4989 20.0116 27.3674 19.6939 27.1333 19.4596L22.1333 14.4596C22.0189 14.3368 21.8809 14.2382 21.7276 14.1699C21.5742 14.1016 21.4087 14.0649 21.2409 14.0619C21.073 14.0589 20.9063 14.0898 20.7507 14.1527C20.595 14.2156 20.4536 14.3091 20.3349 14.4278C20.2162 14.5465 20.1227 14.6879 20.0598 14.8436C19.9969 14.9992 19.9661 15.1659 19.969 15.3338C19.972 15.5016 20.0087 15.6671 20.077 15.8205C20.1454 15.9738 20.2439 16.1118 20.3667 16.2262L23.2333 19.0929H13.75C13.4185 19.0929 13.1005 19.2246 12.8661 19.459C12.6317 19.6934 12.5 20.0114 12.5 20.3429C12.5 20.6744 12.6317 20.9924 12.8661 21.2268C13.1005 21.4612 13.4185 21.5929 13.75 21.5929H23.2333L20.3667 24.4596C20.2439 24.574 20.1454 24.712 20.077 24.8653C20.0087 25.0187 19.972 25.1842 19.969 25.352C19.9661 25.5199 19.9969 25.6866 20.0598 25.8422C20.1227 25.9979 20.2162 26.1393 20.3349 26.258C20.4536 26.3767 20.595 26.4702 20.7507 26.5331C20.9063 26.596 21.073 26.6268 21.2409 26.6239C21.4087 26.6209 21.5742 26.5842 21.7276 26.5159C21.8809 26.4475 22.0189 26.349 22.1333 26.2262L27.1333 21.2262Z" fill="#B68C5A"/>
</g>
</svg>
